<svg width="26" height="26" viewBox="0 0 26 26" fill="none" xmlns="http://www.w3.org/2000/svg">
<path d="M18.3957 0.0492554H6.82775C3.06287 0.0492554 0 3.11212 0 6.87701V18.4451C0 22.2098 3.06287 25.2727 6.82775 25.2727H18.3959C22.1606 25.2727 25.2234 22.2098 25.2234 18.4451V6.87701C25.2234 3.11212 22.1606 0.0492554 18.3957 0.0492554V0.0492554ZM23.7447 18.4451C23.7447 21.3945 21.3452 23.794 18.3957 23.794H6.82775C3.87823 23.794 1.4787 21.3945 1.4787 18.4451V6.87701C1.4787 3.92749 3.87823 1.52796 6.82775 1.52796H18.3959C21.3452 1.52796 23.7447 3.92749 23.7447 6.87701V18.4451Z" fill="white"/>
<path d="M12.6117 5.76416C8.80871 5.76416 5.71484 8.85801 5.71484 12.661C5.71484 16.464 8.80871 19.5579 12.6117 19.5579C16.4147 19.5579 19.5086 16.464 19.5086 12.661C19.5086 8.85801 16.4147 5.76416 12.6117 5.76416V5.76416ZM12.6117 18.0792C9.62427 18.0792 7.19355 15.6486 7.19355 12.661C7.19355 9.67357 9.62427 7.24287 12.6117 7.24287C15.5993 7.24287 18.0299 9.67357 18.0299 12.661C18.0299 15.6486 15.5993 18.0792 12.6117 18.0792V18.0792Z" fill="white"/>
<path d="M19.6735 3.3147C18.5496 3.3147 17.6356 4.22899 17.6356 5.35266C17.6356 6.47652 18.5496 7.39081 19.6735 7.39081C20.7973 7.39081 21.7116 6.47652 21.7116 5.35266C21.7116 4.2288 20.7973 3.3147 19.6735 3.3147ZM19.6735 5.91189C19.3652 5.91189 19.1143 5.66095 19.1143 5.35266C19.1143 5.04417 19.3652 4.79342 19.6735 4.79342C19.982 4.79342 20.2329 5.04417 20.2329 5.35266C20.2329 5.66095 19.982 5.91189 19.6735 5.91189Z" fill="white"/>
</svg>
