<svg width="26" height="26" viewBox="0 0 26 26" fill="none" xmlns="http://www.w3.org/2000/svg">
<path d="M21.6408 3.63192C19.3304 1.32148 16.2592 0.0492554 12.9916 0.0492554C12.9914 0.0492554 12.9907 0.0492554 12.9905 0.0492554C11.3744 0.0494478 9.79943 0.362356 8.30975 0.979513C6.81988 1.59667 5.48512 2.48902 4.34222 3.63192C2.03198 5.94217 0.759755 9.01391 0.759755 12.2812C0.759755 14.2296 1.22989 16.166 2.12069 17.8912L0.0646627 23.7649C-0.0802445 24.1792 0.0223259 24.6295 0.332924 24.9399C0.550188 25.1574 0.836154 25.2728 1.1302 25.2728C1.25625 25.2728 1.38365 25.2517 1.50796 25.2082L7.38161 23.1523C9.10683 24.0431 11.0432 24.5133 12.9916 24.5133C16.2589 24.5133 19.3304 23.2408 21.6408 20.9306C23.9511 18.6203 25.2235 15.5486 25.2235 12.2814C25.2235 9.01391 23.9513 5.94217 21.6408 3.63192V3.63192ZM20.5947 19.8845C18.5639 21.9155 15.8636 23.0338 12.9916 23.0338C11.2346 23.0338 9.48921 22.5993 7.94392 21.7768C7.66373 21.6278 7.33254 21.6022 7.03522 21.7063L1.69886 23.574L3.56668 18.2376C3.67079 17.9399 3.64501 17.6087 3.49606 17.3287C2.67376 15.7838 2.23904 14.0383 2.23904 12.2812C2.23904 9.40918 3.3575 6.70885 5.38832 4.67803C7.41894 2.6474 10.1189 1.52893 12.9907 1.52855H12.9916C15.8638 1.52855 18.5639 2.64701 20.5947 4.67803C22.6257 6.70885 23.7442 9.40899 23.7442 12.2812C23.7442 15.1533 22.6257 17.8537 20.5947 19.8845V19.8845Z" fill="white"/>
<path d="M17.5375 13.3738C16.9748 12.8111 16.0592 12.8111 15.4965 13.3738L14.881 13.9892C13.3529 13.1565 12.1163 11.9199 11.2834 10.3917L11.8988 9.77632C12.4617 9.21362 12.4617 8.298 11.8988 7.73531L10.2404 6.07687C9.67768 5.51417 8.76205 5.51417 8.19936 6.07687L6.87268 7.40354C6.11274 8.16348 6.07483 9.46995 6.76588 11.0824C7.3659 12.4824 8.46396 14.0211 9.8578 15.415C11.2516 16.8088 12.7904 17.9069 14.1904 18.5069C14.9565 18.8352 15.6533 18.999 16.2554 18.999C16.9207 18.999 17.4703 18.799 17.8692 18.4001L19.1959 17.0732V17.0734C19.4686 16.8007 19.6187 16.4384 19.6187 16.0529C19.6187 15.6673 19.4686 15.3049 19.1959 15.0324L17.5375 13.3738ZM16.8231 17.354C16.6063 17.5709 15.9393 17.6469 14.7733 17.1473C13.5421 16.6196 12.1678 15.6328 10.9039 14.3689C9.63996 13.1049 8.65332 11.7309 8.12565 10.4997C7.62589 9.33371 7.7019 8.66652 7.91878 8.44964L9.22006 7.14837L10.8273 8.75581L10.057 9.52634C9.70866 9.87465 9.62456 10.4029 9.84799 10.8409C10.8608 12.8269 12.4459 14.412 14.4319 15.4248C14.8701 15.6482 15.3983 15.5643 15.7466 15.2158L16.517 14.4455L18.1244 16.0529L16.8231 17.354Z" fill="white"/>
</svg>
